<svg id="Capa_1" data-name="Capa 1" xmlns="http://www.w3.org/2000/svg" viewBox="0 0 337 325"><defs><style>.cls-1{fill:#383838;}</style></defs><title>icon</title><path class="cls-1" d="M243.1,104.12a29.07,29.07,0,0,0-3.08-.18H98.16a25.86,25.86,0,0,0-3.84.14c-2.49.36-3.57,1.55-3.6,4,0,4.38-.1,8.76.13,13.13.22,4.08,2.08,7.33,6.05,8.93a5.74,5.74,0,0,1,3.89,6c-.09,9-.09,18-.09,27q0,30.92.07,61.81a46.35,46.35,0,0,0,14.41,34.33c6.66,6.49,14.64,10.63,23.95,11.3,8.72.64,17.49.69,26.24.79s17.4-.06,26.1-.16c13.32-.14,24.38-5.39,33.23-15.2,8.26-9.15,11.55-20.2,11.55-32.37q0-38.86,0-77.73c0-3.29-.07-6.59-.12-9.88a5.48,5.48,0,0,1,3.84-5.81,8.67,8.67,0,0,0,5.87-7.54c.39-5.22.31-10.49.25-15.73C246.05,105,245.11,104.34,243.1,104.12Zm-13.46,77.61h-.06q0,22.25,0,44.5c0,17.46-12.08,33.22-28.64,36.85-5.43,1.19-11.13,1.24-16.72,1.53a391.57,391.57,0,0,1-39.66-.35c-8.76-.43-16.74-2.73-23.43-8.59a38.26,38.26,0,0,1-13.66-29.14c-.16-8.86-.08-17.72-.09-26.58q0-22.69,0-45.41c0-6.07-.09-12.15-.11-18.23a13.73,13.73,0,0,1,.19-2.3,2.33,2.33,0,0,1,2.15-2.09,20.68,20.68,0,0,1,2.61-.18l94.56.12c6.08,0,12.15-.08,18.23-.12a11.32,11.32,0,0,1,1.54,0c2.23.26,3.08,1.16,3.1,3.43,0,3.55,0,7.11,0,10.66Zm9.82-61.32a4.82,4.82,0,0,1-5,4.53c-1.7.08-3.4.14-5.09.14q-61.11,0-122.21,0a16.06,16.06,0,0,1-5.44-.81,8.05,8.05,0,0,1-4.2-11.71,4.49,4.49,0,0,1,2.77-1.56,23.66,23.66,0,0,1,4.62-.24q32.35,0,64.73,0h53.15c4.06,0,8.13-.07,12.2-.06a11.83,11.83,0,0,1,2.44.26,2.63,2.63,0,0,1,2.29,2.71A63.83,63.83,0,0,1,239.46,120.41Z"/><path class="cls-1" d="M254.22,91.66a24,24,0,0,0-22.85-22.4c-8-.24-16.06-.11-24.09-.09-2.89,0-4-.64-5.1-3.27-3.68-9-9.7-13-19.43-13s-19.37,0-29.05,0c-9.11,0-15.42,4.3-18.81,12.8-1.17,2.94-1.93,3.46-5.07,3.46q-11,0-21.92,0a25.22,25.22,0,0,0-14,3.78c-7.17,4.59-10.76,11.28-11.18,19.7-.14,2.71,1,3.86,3.71,4.09,1,.08,2,.1,2.93.1H247.6c.72,0,1.44,0,2.16-.06C253.45,96.52,254.45,95.37,254.22,91.66ZM152,59.68q16.51-.21,33,0a11.73,11.73,0,0,1,10.79,9H141.2A11.54,11.54,0,0,1,152,59.68Zm-61.6,30A15.3,15.3,0,0,1,95.82,80a17.13,17.13,0,0,1,11.35-4.18q61,0,121.92,0c9,0,15.68,5.19,17.92,13.87Z"/><path class="cls-1" d="M195.94,164.17a2.56,2.56,0,0,0-4.42,1,10.26,10.26,0,0,0-.37,3q0,16.68,0,33.36,0,11.43,0,22.86c0,4.07,0,8.14.1,12.2.06,2.31,1.14,3.2,3.46,3.16,2,0,3-1,3-3.26.08-4.42.09-8.85.09-13.28q0-27.49-.09-55A5.59,5.59,0,0,0,195.94,164.17Z"/><path class="cls-1" d="M145.8,168.32a16.64,16.64,0,0,0-.06-2,3.05,3.05,0,0,0-3.38-3c-2,.05-2.9,1-3.08,3.11-.06.61-.06,1.23-.06,1.85v33.38q0,16.6,0,33.22a7,7,0,0,0,.18,2.6,4.4,4.4,0,0,0,1.8,2.22,2.2,2.2,0,0,0,3-1,12.48,12.48,0,0,0,1.53-4.71c.17-6.8.1-13.6.1-20.39Q145.81,191,145.8,168.32Z"/><path class="cls-1" d="M168.31,163.41c-2.55,1.67-3.15,4-3.13,7,.14,21.56.07,43.13.07,64.69a19.27,19.27,0,0,0,.05,2,2.73,2.73,0,0,0,2.93,2.73c2.07.08,3.09-.65,3.42-2.53a11.29,11.29,0,0,0,.1-1.84c0-21.88,0-43.75.05-65.62C171.81,166.92,171,164.71,168.31,163.41Z"/></svg>