<svg id="Capa_1" data-name="Capa 1" xmlns="http://www.w3.org/2000/svg" viewBox="0 0 337 325"><defs><style>.cls-1{fill:#383838;}</style></defs><title>icon</title><path class="cls-1" d="M230.1,107.4c-3.59-4.19-3.7-4.14-7.5-.34-4.16,4.14-8.19,8.43-12.49,12.43-2.25,2.09-2.08,3.44-.14,5.75,13.74,16.37,17.58,34.94,11.25,55.33-6.74,21.72-26.95,37.44-49.56,39.25-3.35.26-4.91-.61-4.67-4.18.19-2.86,0-5.74,0-8.61,0-3.14,0-6.27,0-9.4,0-.87.29-2-.72-2.45s-1.64.59-2.25,1.19C152.47,207.89,141,219.45,129.38,231c-1.64,1.63-1.72,2.9,0,4.57Q146.7,252.78,164,270.11c.61.61,1.22,1.63,2.25,1.22s.73-1.58.74-2.43c0-5.62.22-11.24,0-16.84-.19-4,1.06-5.33,5.23-5.55,42.2-2.25,77-37.45,78.68-79.2Q252.22,133.22,230.1,107.4Z"/><path class="cls-1" d="M126.76,200.11c-11.34-13.24-15.87-28.66-13.17-45.89,4.14-26.45,26.18-46.79,51.71-48.31,3.34-.2,4.78.62,4.65,4.21-.22,5.86-.07,11.75,0,17.62,0,1-.39,2.3.88,2.73,1,.34,1.62-.66,2.24-1.29Q190.23,112,207.4,94.85c1.73-1.71,2-3,.13-4.87-11.59-11.49-23.1-23.06-34.66-34.58-.61-.62-1.19-1.65-2.22-1.26s-.73,1.57-.74,2.42c0,5.87-.16,11.75,0,17.62.1,3.38-.81,4.89-4.55,4.95-8,.13-15.77,2-23.35,4.59a78.76,78.76,0,0,0-18.6,9.36c-.09.07-11.78,8.57-20,18.59-.15.23-.3.47-.47.7a92.2,92.2,0,0,0-5.7,8.66,10.88,10.88,0,0,1-.83,1.48,81.69,81.69,0,0,0-10.23,43.73c.81,20.2,8.11,37.82,21.53,53,2.06,2.32,3.52,2.88,5.89.3,4.15-4.51,8.51-8.85,13-13C129.09,204.18,129,202.68,126.76,200.11Z"/></svg>