<svg id="Capa_1" data-name="Capa 1" xmlns="http://www.w3.org/2000/svg" viewBox="0 0 337 325"><defs><style>.cls-1{fill:#383838;}</style></defs><title>icon</title><path class="cls-1" d="M298.19,90.36a35.54,35.54,0,0,0-31.3-35.79c-6.06-.81-12.28-.55-18.43-.54q-85.83.06-171.66.23c-22.46.05-37.93,15.5-38,37.91q-.11,70-.07,140.05c0,23.78,15.3,38.8,39,38.8h90.45v-.35c31,0,61.93.08,92.89,0,20.92-.07,36.91-15.47,37-35.85q.22-72.21.06-144.43m-248-10.19c5-10.7,13.4-16.44,25.32-16.46,24.16-.05,48.31.06,72.47.08q56.42.08,112.83.1c12,0,21.63,6,25.88,16.34a52.46,52.46,0,0,1,1.56,5.39H48.77a31,31,0,0,1,1.41-5.45M288.89,232.56c0,17.56-11,28.78-28.46,28.77q-92.19-.07-184.38-.33c-16.68,0-27.83-11.25-27.85-27.82-.06-44.43,0-88.86-.19-133.3,0-4.56,1.93-4.83,5.51-4.82q57.41.14,114.81.06v.08c38.27,0,76.54.07,114.81-.09,4.33,0,5.82,1,5.81,5.61-.16,43.95,0,87.89-.06,131.84"/><path class="cls-1" d="M214.19,120.9c-15.24-.1-30.48,0-45.72,0s-30.48-.1-45.72,0A41.65,41.65,0,0,0,81.1,162.77c.14,22.9,18.47,41,41.71,41.2,11.51.08,23,0,34.53-.08,3.25,0,6.61.44,9.68-.31,1.69-.41,4-2.87,4-4.42s-2.34-3.29-4-4.45c-.89-.62-2.51-.2-3.81-.22-14.43-.17-28.87,0-43.28-.6-16.42-.72-29.26-15.15-29.08-31.87.18-16.54,13.6-30.94,30-31.11q47.41-.49,94.85,0c15.37.13,28.34,12.07,30.46,27A32.33,32.33,0,0,1,224,193.13c-1.39.44-3.23.42-4.09,1.34-1.27,1.36-2.79,3.59-2.45,5s2.73,2.73,4.48,3.35c1.16.41,2.82-.38,4.2-.81,20.06-6.18,32-25,29-46-2.79-20-20.23-35.07-40.95-35.2"/><path class="cls-1" d="M224.33,214.27q-20-15-40.21-29.8c-1.11-.81-3.44-1.34-4.33-.73a5.59,5.59,0,0,0-2,4.38q2.63,24.87,5.71,49.71c.59,4.84,3.09,5.66,6.91,2.58,2.7-2.17,5.34-4.41,8.23-6.8,2.66,4.57,4.94,8.48,7.2,12.4,5.85,10.15,4.79,9.29,14.85,3.76,3.48-1.91,4.14-4.06,2.09-7.45-3.27-5.39-6.34-10.89-9.91-17.07,3.86-1.36,7.08-2.39,10.21-3.62,4.53-1.77,5.05-4.48,1.23-7.36m-16,5.2c-4.35,1.66-4.89,3.15-2.54,7.3,2.63,4.65,5.38,9.22,8,13.86a40.58,40.58,0,0,1,1.76,4.05l-1.23.78a18.39,18.39,0,0,1-2.14-2.47c-2.82-4.71-5.56-9.48-8.33-14.22-2.92-5-4.17-5.25-8.48-1.63l-5.65,4.73-4-37.37L216,216.75c-3.23,1.14-5.48,1.87-7.68,2.72"/><path class="cls-1" d="M77.83,69.25c-3.61.16-5.69,2.39-5.57,6s2.45,5.68,6,5.54,5.47-2.36,5.69-6.07c-.61-3.35-2.46-5.58-6.12-5.42"/><path class="cls-1" d="M95.75,69.16c-3.54.4-5.71,2.37-5.67,5.91s2.33,5.72,5.85,5.69,5.7-2.23,5.63-5.84-2.23-5.47-5.81-5.76"/><path class="cls-1" d="M113.6,69.13c-3.49.4-5.67,2.27-5.67,5.92s2.29,5.76,5.81,5.75,5.83-2.26,5.79-5.82-2.26-5.53-5.93-5.85"/><polygon class="cls-1" points="115.56 148.74 112.05 148.74 112.05 172.01 116.57 172.01 116.57 157.1 128.54 172.01 132.21 172.01 132.21 148.78 127.69 148.78 127.69 164.02 115.56 148.74"/><path class="cls-1" d="M136.73,148.74v11.87a17.48,17.48,0,0,0,.54,4.36,10.28,10.28,0,0,0,1.75,3.68,8.84,8.84,0,0,0,3.17,2.56,10.63,10.63,0,0,0,4.73,1,10.8,10.8,0,0,0,4.63-.92,8.68,8.68,0,0,0,3.16-2.49,10.24,10.24,0,0,0,1.8-3.67,17.1,17.1,0,0,0,.57-4.49V148.74h-4.49v11.87a13.64,13.64,0,0,1-.28,2.8,6.87,6.87,0,0,1-.95,2.41,5.06,5.06,0,0,1-1.77,1.7,5.25,5.25,0,0,1-7.11-1.67,7.07,7.07,0,0,1-.95-2.41,14.45,14.45,0,0,1-.28-2.83V148.74Z"/><polygon class="cls-1" points="166.16 161.98 175.96 161.98 175.96 158.31 166.16 158.31 166.16 152.71 177.5 152.71 177.5 148.74 161.64 148.74 161.64 172.01 177.8 172.01 177.8 168.05 166.16 168.05 166.16 161.98"/><polygon class="cls-1" points="191.92 172.01 201 148.74 196.25 148.74 190.02 166.34 183.73 148.74 178.98 148.74 188.12 172.01 191.92 172.01"/><path class="cls-1" d="M207.93,171.18a11.23,11.23,0,0,0,9.2,0,11.32,11.32,0,0,0,3.6-2.59,12,12,0,0,0,2.36-3.74,11.69,11.69,0,0,0,.85-4.44,11.87,11.87,0,0,0-.82-4.32,12.32,12.32,0,0,0-2.29-3.8,11.48,11.48,0,0,0-3.55-2.71,10.23,10.23,0,0,0-4.61-1,10.69,10.69,0,0,0-4.56,1,11.5,11.5,0,0,0-3.62,2.6,12.4,12.4,0,0,0-2.39,3.77,11.7,11.7,0,0,0-.87,4.46,12,12,0,0,0,.82,4.36,12.16,12.16,0,0,0,2.31,3.78,11.27,11.27,0,0,0,3.57,2.66m-1.67-13.64a8,8,0,0,1,1.3-2.49,6.36,6.36,0,0,1,2.13-1.77,6.24,6.24,0,0,1,2.91-.67,6.15,6.15,0,0,1,2.84.64,6.5,6.5,0,0,1,2.13,1.72,7.85,7.85,0,0,1,1.34,2.49,9,9,0,0,1,.48,2.92,9.44,9.44,0,0,1-.44,2.83,8,8,0,0,1-1.32,2.51,6.49,6.49,0,0,1-2.13,1.79,6.14,6.14,0,0,1-2.9.67,6.06,6.06,0,0,1-2.86-.66,6.32,6.32,0,0,1-2.13-1.73,7.79,7.79,0,0,1-1.33-2.5,9.18,9.18,0,0,1-.46-2.91,9.51,9.51,0,0,1,.44-2.84"/></svg>