<svg id="Capa_1" data-name="Capa 1" xmlns="http://www.w3.org/2000/svg" viewBox="0 0 337 325"><defs><style>.cls-1{fill:#383838;}</style></defs><title>icon</title><path class="cls-1" d="M224.55,143H188V106.45A11.15,11.15,0,0,0,176.86,95.3H160.14A11.15,11.15,0,0,0,149,106.45V143H112.45a11.15,11.15,0,0,0-11.15,11.15v16.72A11.15,11.15,0,0,0,112.45,182H149v36.54a11.15,11.15,0,0,0,11.15,11.15h16.72A11.15,11.15,0,0,0,188,218.55V182h36.54a11.15,11.15,0,0,0,11.15-11.15V154.14A11.15,11.15,0,0,0,224.55,143Z"/><path class="cls-1" d="M168.5,52.87A109.63,109.63,0,1,0,278.13,162.5,109.63,109.63,0,0,0,168.5,52.87Zm0,199.81a90.18,90.18,0,1,1,90.18-90.18A90.17,90.17,0,0,1,168.5,252.68Z"/></svg>