<svg id="Capa_1" data-name="Capa 1" xmlns="http://www.w3.org/2000/svg" viewBox="0 0 337 325"><defs><style>.cls-1{fill:#383838;}</style></defs><title>icon</title><path class="cls-1" d="M118.24,158.09c-2.4,16.58-4.73,33.18-6.64,49.83-1,8.78,3.29,12.47,12.12,11.29,15.54-2.07,31.11-3.92,46.58-6.42A21.73,21.73,0,0,0,181,207.56c8.5-7.8,16.43-16.23,24.64-24.36,10.81-10.7,21.68-21.35,32.27-31.77l-58-57.59a4.16,4.16,0,0,0-1.13.75Q150,123.2,121.43,151.91A11.78,11.78,0,0,0,118.24,158.09Z"/><path class="cls-1" d="M258.54,186.34c-5.63,0-9.22,4.54-9.25,11.88-.06,12,0,24,0,36,0,13.41-7.15,20.7-20.47,20.71q-65.71.08-131.43,0c-14.37,0-21.29-6.95-21.3-21.17q0-65.06,0-130.13c0-15.62,6.53-22.07,22.36-22.12,11.55,0,23.1,0,34.65,0,7.36-.05,11.15-3.16,11.21-8.93s-4-9.09-11-9.12q-19-.09-37.93,0C73.57,63.5,57.93,79.19,57.87,101c-.06,22.45,0,44.9,0,67.35,0,22.24-.05,44.47,0,66.7,0,22.38,15.35,37.83,37.83,37.89q67,.17,134,0c22.3-.05,37.67-15.57,37.88-38,.12-12.21.07-24.41,0-36.62C267.58,190.78,264.14,186.33,258.54,186.34Z"/><path class="cls-1" d="M272.73,84.8q-12.64-13.67-26.34-26.33c-8.55-7.9-21.5-8.73-29.3-1.66S202.24,72.06,195,79.58l55.77,56c7.74-7.18,16.36-14,23.46-22.1C281.51,105.2,280.53,93.25,272.73,84.8Z"/></svg>