<svg id="Capa_1" data-name="Capa 1" xmlns="http://www.w3.org/2000/svg" viewBox="0 0 337 325"><defs><style>.cls-1{fill:#383838;}</style></defs><title>icon</title><path class="cls-1" d="M265.64,145.56c-7.13-1.4-12.61,1.51-17.59,6.24-8,7.6-16.17,15-24.57,22.84-4.87-3.89-10.27-4.41-15.92-4.35-11.54.13-23.09.17-34.63,0a23.86,23.86,0,0,1-8.86-1.93c-14.47-6.36-28.81-6.21-43.21.08-9.4,4.11-16.55,10.83-22.26,19.37C92.09,185.68,86.08,186.25,81,191c-6.8,6.39-13.51,12.88-20.21,19.38-4,3.88-4,6.71.08,10.58q24.6,23.58,49.23,47.14c3.94,3.77,6.94,3.9,10.89.23,6.91-6.45,13.78-13,20.52-19.58,3.42-3.36,4.67-7.59,4.41-12.44a6.5,6.5,0,0,1,1.84-4.6,21.43,21.43,0,0,1,14.87-5.38c19.41,0,38.82,0,58.22,0a16,16,0,0,0,13-5.74c13.82-16.29,27.71-32.53,41.4-48.92C283.42,162,278.16,148,265.64,145.56Zm-131,96.86c-6.11,6-12.39,11.92-19,18.22l-47-45c6.67-6.32,13-12.47,19.51-18.42,2.53-2.31,6-2.08,8.69.51q19,18,37.77,36.25C137.37,236.61,137.36,239.73,134.64,242.42Zm133.05-76q-16.53,19.53-33.13,39c-2.38,2.81-4.85,5.55-7.11,8.45a8.78,8.78,0,0,1-7.61,3.57c-18.43-.1-36.85.12-55.27-.12-9.24-.12-17.55,1.72-24.56,8.77L106.32,193.9a32.78,32.78,0,0,1,11.28-13c13.46-9.38,27.69-10.86,42.91-4.23a36.41,36.41,0,0,0,13.17,2.66c11.53.36,23.09.13,34.63.13,1,0,2,0,2.95,0,5,.28,8.44,3.41,8.26,7.56s-3.51,6.79-8.47,6.82c-11.54.05-23.09,0-34.64,0-1.22,0-2.8-.3-3.58.33-1.46,1.18-3.3,2.89-3.38,4.46-.06,1.31,2.08,2.84,3.46,4,.53.45,1.66.24,2.51.24,11.67,0,23.34.09,35,0,12.43-.13,18.32-6.3,18.36-18.74a4.77,4.77,0,0,1,1.45-3.08q13-12.23,26.2-24.29c3.72-3.4,8.05-3.42,11.19-.26C270.51,159.38,270.59,163,267.69,166.39Z"/><path class="cls-1" d="M135.25,106q0,12.35,0,24.7c0,5.56,1.21,7.36,6.35,9.48,15.32,6.32,30.68,12.56,46,19a12.25,12.25,0,0,0,10.24.09q23.25-9.8,46.66-19.23c4.27-1.73,6-4.65,6-9.1-.07-16.59,0-33.18,0-49.77,0-5.5-1.31-7.39-6.43-9.44-15.49-6.23-31-12.39-46.47-18.71a12.64,12.64,0,0,0-10.29.07q-23.13,9.6-46.39,18.93c-3.78,1.52-5.59,4.11-5.57,8.17C135.28,88.82,135.25,97.42,135.25,106Zm106.37,23.05c0,1.37-1,3.5-2.07,4-13.43,5.73-27,11.23-40.46,16.77a11,11,0,0,1-1.7.36,23.06,23.06,0,0,1-.37-2.87c0-12.89,0-25.79-.05-38.68,0-2.08.48-3.34,2.6-4.18C212.81,99.24,226,93.88,239.2,88.6a19.22,19.22,0,0,1,2.52-.59V99.24C241.72,109.19,241.8,119.13,241.62,129.08Zm-65-62.7c.23-.1.47-.15.7-.24,5.12-2,10.24-5.58,15.36-5.56s10.26,3.6,15.38,5.65l30.72,12.35a8.39,8.39,0,0,1,1.13.82c-1.9.78-3.49,1.45-5.1,2.1-13.2,5.3-26.38,10.63-39.61,15.86-1.26.5-3,.94-4.12.48-15-6-30-12.11-46-18.64ZM144,89.42a7.17,7.17,0,0,1,.42-1.43c1.17.42,2.3.76,3.39,1.21,12.5,5.08,25,10.2,37.49,15.25,1.92.78,3.36,1.49,3.34,4.08-.13,13.14-.06,26.28-.08,39.41a19.58,19.58,0,0,1-.34,2.38c-1.24-.4-2.29-.68-3.28-1.08-12.71-5.23-25.43-10.42-38.07-15.81-1.24-.53-2.77-2.29-2.78-3.5C143.89,116.43,144,102.92,144,89.42Z"/><path class="cls-1" d="M92.81,207a5.14,5.14,0,1,0,5.3,5.31A5.12,5.12,0,0,0,92.81,207Z"/><path class="cls-1" d="M151.48,129c5.31,2.18,10.62,4.37,16,6.25,3.07,1.08,5.66-.93,5.6-4.64-.38-.51-.92-2-1.93-2.47-5.61-2.38-11.26-4.7-17.07-6.52-1.24-.39-3.8,1-4.63,2.31C148.25,125.87,149.19,128.07,151.48,129Z"/><path class="cls-1" d="M151.36,117.54c5.23,2.42,10.66,4.42,16.11,6.31,2.25.78,4.55.24,5.41-2.4s-.32-4.29-2.73-5.24q-6.85-2.7-13.72-5.36c-1-.39-2.09-.68-3.94-1.28-1,1-2.9,2.13-3.11,3.49S150.18,117,151.36,117.54Z"/></svg>