<svg id="Capa_1" data-name="Capa 1" xmlns="http://www.w3.org/2000/svg" viewBox="0 0 337 325"><defs><style>.cls-1{fill:#383838;}</style></defs><title>icon</title><path class="cls-1" d="M307,145.86c-7.52-13.69-17.55-25.49-28.85-36.2-13.62-12.91-29.2-23-46.07-31.1a147.86,147.86,0,0,0-62.86-15.09c-5.29.38-10.59.66-15.86,1.17-3.21.3-6.4.85-9.57,1.44-19,3.53-36.6,10.6-53.28,20.17-26.21,15-46.9,35.53-61.38,62.14-4.31,8-5.24,16.34-1.63,24.67a109.57,109.57,0,0,0,9,16.32c9,13.77,20.67,25.16,33.43,35.47,29.79,24.07,64,35.91,102.12,36.67,6.4.13,12.87-.83,19.24-1.81a153.47,153.47,0,0,0,65.18-26.19c19.62-13.66,35.4-31,48.67-50.8C313.2,170.74,313.9,158.41,307,145.86Zm-15.75,26a154.88,154.88,0,0,1-44.5,46.76A141.28,141.28,0,0,1,190.52,242,126.84,126.84,0,0,1,122,235a150.85,150.85,0,0,1-53.55-34.81,165.57,165.57,0,0,1-22.05-27.9c-4.11-6.45-3.93-12.83-.14-19.33A132.25,132.25,0,0,1,80,114.86a156.5,156.5,0,0,1,74.18-31.61c6.48-1,13-1.37,17.49-1.83a130.55,130.55,0,0,1,40.08,6.88,139.86,139.86,0,0,1,51.38,31.17,185.28,185.28,0,0,1,28,33.83C295.19,159.56,295.14,165.58,291.26,171.88Z"/><path class="cls-1" d="M168.87,100c-34.76,0-62.79,27.59-62.79,61.87,0,35.77,27.25,63.43,62.51,63.43a62.31,62.31,0,0,0,62.64-61C232,129.1,204.58,100.08,168.87,100ZM207,132.15a11.86,11.86,0,0,1-14.87,6.21c-1.5-.5-3-1.05-4.47-1.57,6,5.74,10.87,12.19,12.25,20.63a31.64,31.64,0,1,1-62.61,1.45c2.42-21.42,24.95-33.83,44.59-24.91,1.93.87,3.81,1.87,5.72,2.82-.66-1.38-1.32-2.75-2-4.13-2.48-5.3-1.58-10.42,2.48-14.06A11.85,11.85,0,0,1,207,132.15Z"/></svg>