<svg id="Capa_1" data-name="Capa 1" xmlns="http://www.w3.org/2000/svg" viewBox="0 0 337 325"><defs><style>.cls-1{fill:#383838;}</style></defs><title>icon</title><path class="cls-1" d="M136.8,162.52s-17,3.41-42.57,25.54h4.2l.07.11H299.63l.06-.11H302s-.57-.5-1.59-1.36l.11-.22c-3.47-2.7-6.73-5.78-10.47-8-1.18-.72-2.36-1.44-3.55-2.15-11.57-7.82-28.09-17-44.1-18.88-28.94-3.4-77.38-1.61-91.47,1.75l-.09,0a76.72,76.72,0,0,0-13.18,3.14Z"/><path class="cls-1" d="M50.92,207.66q40.38-.87,80.76-.79,76.53.13,153.06.79c6.74.05,11.82-2.1,16.11-8.64H35C39,205.56,43.87,207.82,50.92,207.66Z"/><path class="cls-1" d="M186.36,105c-7.52-1.82-15.58-4.64-22.23,2.57-9.77,10.58-12.57,23.5-13.24,38.1H216C216.89,127.59,203.33,109.1,186.36,105Z"/><path class="cls-1" d="M75.58,188.33a8.71,8.71,0,0,0,5.22-2.23c9.5-8.67,18.84-17.5,28.42-26.47-17.82-6.2-62.51,10.87-73.75,28.8C49.1,188.43,62.34,188.51,75.58,188.33Z"/><path class="cls-1" d="M147.49,105.52c-11.85,3.62-19.91,11.87-25,22.83-2.23,4.85-2.12,10.77-3.07,16.21l17.06.45C140.16,131.91,143.74,119,147.49,105.52Z"/><path class="cls-1" d="M233.85,218.71H97.63a1.7,1.7,0,1,0,0,3.4H233.85a1.7,1.7,0,1,0,0-3.4Z"/></svg>