<svg id="Capa_1" data-name="Capa 1" xmlns="http://www.w3.org/2000/svg" viewBox="0 0 337 325"><defs><style>.cls-1{fill:#383838;}</style></defs><title>icon</title><path class="cls-1" d="M163.57,258.26c-11.91,0-23.82,0-35.73,0-9.06,0-15.22-5.93-15.57-15-.15-3.84-.08-7.7,0-11.55,0-2.93,5.54-6,8-4.56a1.76,1.76,0,0,1,.77,1.89c-.43,3.5,1.6,3.84,4.39,3.82,12.76-.09,25.51,0,38.26,0h37.54c4.73,0,4.76-.05,4.77-4.9q0-17.69,0-35.37c0-3.36,4.05-8.14,7.24-8.69a1.1,1.1,0,0,1,1.46,1.1,27.62,27.62,0,0,1,.09,2.88q0,27.26,0,54.5c0,10.22-5.65,15.87-15.86,15.9C187.16,258.28,175.37,258.25,163.57,258.26Zm.05-7.31v0H169l.72,0c3.48-.29,5.32-2.21,5.28-5.5s-1.79-5.13-5.12-5.25c-4.18-.16-8.38-.15-12.56,0a5.25,5.25,0,0,0-5.25,5.27c0,3,2.16,5.27,5.45,5.46C159.54,251,161.58,251,163.62,251Z"/><path class="cls-1" d="M163.94,66.74c11.91,0,23.82,0,35.73,0,9.22,0,15.07,5.89,15.15,15.14q.08,9.91,0,19.85c0,3.5-1.28,4.2-5.89,4.24-3.34,0-2.84-2.27-2.87-4.23-.06-5.41-.09-10.83,0-16.24,0-2.46-.92-3.43-3.4-3.43q-39.16.07-78.33,0c-3,0-3.25,1.58-3.24,3.91.05,15,0,30.08,0,45.12,0,3.66-3.6,8.45-7,9.43-1.1.32-1.64-.11-1.76-1.12a25.12,25.12,0,0,1-.11-2.88q0-26.35,0-52.7c0-11.43,5.67-17.08,17-17.1Zm-.29,8.81c4.81,0,9.63,0,14.44,0,.9,0,2.34.21,2.39-1,.06-1.57-1.53-1.19-2.49-1.22-9.5-.23-19,.33-28.51-.37-1-.08-2.58-.1-2.64,1.21-.08,1.78,1.65,1.36,2.73,1.37C154.26,75.6,159,75.56,163.65,75.55Z"/><path class="cls-1" d="M104.06,158.59c-3.75,4.46-8.06,8.44-11.75,13-4.8,5.92-9.15,12.09-11.8,19.31-4.2,11.45.26,19.59,12.27,21.83,9.51,1.76,18.93.52,28.27-1.55,19.67-4.36,37.93-12.35,55.65-21.72,4-2.11,5.62-1.39,7,2.88.67,2.1-1.2,2.44-2.32,3-11.49,6.07-23.1,12-35.31,16.45-13.91,5.12-28.06,9.43-42.94,10.73-7.27.64-14.46.43-21.29-2.47C74,216.75,70.56,210,72.29,201.67c2.39-11.54,9.35-20.46,16.86-29C93.66,167.57,98.2,162.42,104.06,158.59Z"/><path class="cls-1" d="M254.45,113.08c.16-6-2.43-9.94-7.48-12.4A31.66,31.66,0,0,0,235.82,98c-2.46-.24-4.63-.14-6.16,2.51-1.16,2-3.41,2.17-5.42.94a4,4,0,0,1-1.84-5.28c.88-2.18,3-3.38,5-2.52,5.15,2.19,10.45,1,15.66,1.23a40,40,0,0,1,10.29,1.66c8.89,2.72,13.16,9.74,11.46,18.9-2,11-8.49,19.5-15.47,27.7-13.62,16-30.23,28.46-47.56,40.08-2.7,1.82-3.51.47-4.95-1.53-1.62-2.26-1.32-3.43.92-4.85a199.49,199.49,0,0,0,40.19-33.25c6.59-7.21,12.72-14.78,15.6-24.41A18.44,18.44,0,0,0,254.45,113.08Z"/><path class="cls-1" d="M217.4,112.17c4.38.1,8.65.5,12.57,2.68a10,10,0,0,1,5.09,7.08c.3,1.43,0,2.33-1.81,2.16-2.14-.2-4-.39-5.94-1.92-5.92-4.71-13-3.8-19.75-2.86-15.81,2.2-30.17,8.68-44.17,16A174.78,174.78,0,0,0,135.18,154c-1.75,1.4-2.78,1.12-4.18-.46s-.82-2.4.53-3.44C155.29,131.88,181,117.81,211,112.75,213.07,112.4,215.25,112.36,217.4,112.17Z"/><path class="cls-1" d="M144.76,194.68c-10.63,4.25-21.54,6.78-32.91,4.21-7-1.57-10.17-7-8.45-13.88,2.16-8.68,7.52-15.44,13.64-21.68,1.47-1.48,2.49-.62,3.62.48s1.63,2.29.27,3.66a45.83,45.83,0,0,0-6.85,9.24,25.9,25.9,0,0,0-3.22,7.6c-1.47,6.77,1.26,11.29,8.13,12.67s13.86.56,20.7-1C141.38,195.53,143.07,195.1,144.76,194.68Z"/><path class="cls-1" d="M206,139.2c0-3.23,0-6.47,0-9.71,0-4.47,3.53-3.28,6-3.62,2.74-.38,2.75,1.57,2.75,3.47,0,2.75-.36,5.57.08,8.25.93,5.81-2,9.54-6.1,12.85-.56.45-1.07,1.16-1.83.94-1-.29-.92-1.3-.92-2.11C206,145.91,206,142.56,206,139.2Z"/><path class="cls-1" d="M183.53,185.88a6.21,6.21,0,0,1,6.45-6.3,6.81,6.81,0,0,1,6.41,6.56,6.56,6.56,0,0,1-6.84,6.41C185.87,192.4,183.44,189.7,183.53,185.88Z"/><path class="cls-1" d="M125.77,164.14a5.39,5.39,0,0,1-4.88-5.32,5,5,0,0,1,5.12-5,5,5,0,0,1,5,5.38A5.33,5.33,0,0,1,125.77,164.14Z"/><path class="cls-1" d="M232,126c2.54.25,3.87,1.7,3.77,4.25s-1.48,4.09-4,4-4.08-1.45-4.06-4S229.31,126.14,232,126Z"/></svg>